<svg width="225" height="141" viewBox="0 0 225 141" fill="none" xmlns="http://www.w3.org/2000/svg">
<path d="M18.384 27.104C22.512 27.104 25.648 28.24 27.792 30.512C29.936 32.784 31.008 35.888 31.008 39.824C31.008 44.048 29.664 47.856 26.976 51.248C24.288 54.64 20.864 57.328 16.704 59.312C12.576 61.264 8.4 62.368 4.176 62.624V35.744L10.128 33.776V59.6C12.976 58.736 15.488 57.392 17.664 55.568C19.84 53.712 21.536 51.504 22.752 48.944C24 46.384 24.624 43.6 24.624 40.592C24.624 37.424 23.824 34.896 22.224 33.008C20.656 31.12 18.48 30.176 15.696 30.176C13.488 30.176 11.184 30.704 8.784 31.76C6.416 32.784 4.272 34.112 2.352 35.744L1.152 34.352C3.2 32.336 5.808 30.624 8.976 29.216C12.144 27.808 15.28 27.104 18.384 27.104ZM41.5654 50.144C42.5574 47.872 43.7254 45.984 45.0694 44.48L44.9254 44.288C43.8374 44.928 42.5254 45.248 40.9894 45.248C39.9974 45.248 39.0854 45.088 38.2534 44.768L35.1334 51.44L33.1654 50.576L36.3814 43.952C36.2854 43.856 35.9814 43.584 35.4694 43.136C34.9574 42.688 34.6374 42.24 34.5094 41.792L39.1174 36.608C39.4694 37.92 40.1414 39.072 41.1334 40.064C42.1574 41.024 43.2934 41.504 44.5414 41.504C46.4934 41.504 48.5414 40.8 50.6854 39.392L51.5494 40.304C49.6934 42.032 48.1094 44.08 46.7974 46.448C45.4854 48.816 44.8294 51.2 44.8294 53.6C44.8294 55.072 45.1974 56.304 45.9334 57.296C46.7014 58.288 47.8054 58.784 49.2454 58.784C50.2054 58.784 51.2294 58.432 52.3174 57.728L53.0374 58.592C52.1094 59.776 50.9894 60.72 49.6774 61.424C48.3974 62.128 47.0534 62.48 45.6454 62.48C43.8854 62.48 42.5254 61.904 41.5654 60.752C40.6054 59.568 40.1254 58.08 40.1254 56.288C40.1254 54.432 40.6054 52.384 41.5654 50.144ZM69.9405 37.568C71.7965 37.568 73.3485 38.048 74.5965 39.008C75.8445 39.936 76.4685 41.296 76.4685 43.088C76.4685 44.528 75.6845 46.144 74.1165 47.936C72.5805 49.696 70.7405 51.344 68.5965 52.88C66.4845 54.384 64.6765 55.472 63.1725 56.144C64.5165 58.288 66.4845 59.36 69.0765 59.36C70.5165 59.36 71.9565 58.96 73.3965 58.16C74.8685 57.328 76.1165 56.24 77.1405 54.896L78.1005 56.048C76.4365 58.128 74.6765 59.744 72.8205 60.896C70.9965 62.016 68.8205 62.576 66.2925 62.576C64.2445 62.576 62.4045 62.112 60.7725 61.184C59.1725 60.256 57.9085 58.992 56.9805 57.392C56.0845 55.76 55.6365 53.936 55.6365 51.92C55.6365 49.488 56.2925 47.168 57.6045 44.96C58.9485 42.72 60.7245 40.928 62.9325 39.584C65.1405 38.24 67.4765 37.568 69.9405 37.568ZM67.2045 40.688C65.9885 40.688 64.9005 41.136 63.9405 42.032C62.9805 42.896 62.2285 44.016 61.6845 45.392C61.1405 46.768 60.8685 48.192 60.8685 49.664C60.8685 51.584 61.2845 53.232 62.1165 54.608C63.3005 53.936 64.5485 53.008 65.8605 51.824C67.2045 50.608 68.3245 49.312 69.2205 47.936C70.1165 46.56 70.5645 45.312 70.5645 44.192C70.5645 43.072 70.2605 42.208 69.6525 41.6C69.0765 40.992 68.2605 40.688 67.2045 40.688ZM94.6245 38C96.3205 38 97.8885 38.336 99.3285 39.008C100.801 39.68 101.889 40.72 102.593 42.128L97.9365 44.048C97.4885 43.216 96.8645 42.528 96.0645 41.984C95.2645 41.44 94.4165 41.168 93.5205 41.168C91.3765 41.168 89.6805 42.064 88.4325 43.856C87.1845 45.648 86.5605 47.888 86.5605 50.576C86.5605 53.04 86.9285 55.072 87.6645 56.672C88.4005 58.24 89.5685 59.024 91.1685 59.024C93.4085 59.024 94.9445 57.984 95.7765 55.904C96.6085 53.792 97.0245 51.504 97.0245 49.04V46.928L102.641 44.912V57.392C102.641 57.84 102.737 58.24 102.929 58.592C103.153 58.912 103.473 59.072 103.889 59.072C104.689 59.072 105.505 58.512 106.337 57.392L107.249 58.304C106.769 59.424 106.001 60.384 104.945 61.184C103.921 61.952 102.817 62.336 101.633 62.336C100.097 62.336 98.9765 61.824 98.2725 60.8C97.5685 59.744 97.2165 58.4 97.2165 56.768H97.0245C96.2565 58.496 95.2325 59.904 93.9525 60.992C92.6725 62.048 91.1845 62.576 89.4885 62.576C86.9285 62.576 84.9445 61.648 83.5365 59.792C82.1605 57.904 81.4725 55.456 81.4725 52.448C81.4725 49.888 82.0165 47.504 83.1045 45.296C84.2245 43.088 85.7765 41.328 87.7605 40.016C89.7765 38.672 92.0645 38 94.6245 38ZM137.772 37.568C138.988 37.568 139.868 37.968 140.412 38.768C140.988 39.536 141.276 40.688 141.276 42.224V57.584C141.276 58.032 141.388 58.416 141.612 58.736C141.836 59.024 142.14 59.168 142.524 59.168C142.876 59.168 143.26 59.024 143.676 58.736C144.124 58.448 144.54 58.032 144.924 57.488L145.788 58.4C144.988 60.032 144.012 61.104 142.86 61.616C141.708 62.096 140.812 62.336 140.172 62.336C137.068 62.336 135.516 60.656 135.516 57.296V44.336C135.516 44.016 135.436 43.728 135.276 43.472C135.148 43.216 134.972 43.088 134.748 43.088C134.076 43.088 133.372 43.856 132.636 45.392C131.932 46.896 131.324 49.04 130.812 51.824C130.332 54.608 130.092 57.792 130.092 61.376L124.284 62.624V44.336C124.284 44.016 124.22 43.728 124.092 43.472C123.964 43.216 123.788 43.088 123.564 43.088C122.956 43.088 122.268 43.856 121.5 45.392C120.764 46.928 120.124 49.088 119.58 51.872C119.068 54.656 118.812 57.824 118.812 61.376L113.244 62.624V42.464C113.244 41.952 113.116 41.552 112.86 41.264C112.636 40.944 112.332 40.784 111.948 40.784C111.564 40.784 111.164 40.944 110.748 41.264C110.332 41.584 109.948 42.032 109.596 42.608L108.684 41.648C109.484 39.984 110.476 38.896 111.66 38.384C112.844 37.84 113.74 37.568 114.348 37.568C117.356 37.568 118.86 39.248 118.86 42.608V48.32H119.052C119.852 44.96 120.924 42.336 122.268 40.448C123.644 38.528 125.068 37.568 126.54 37.568C127.82 37.568 128.716 37.952 129.228 38.72C129.74 39.488 129.996 40.656 129.996 42.224V48.32H130.284C131.052 44.96 132.108 42.336 133.452 40.448C134.828 38.528 136.268 37.568 137.772 37.568Z" fill="#5B3E90"/>
<path d="M73.456 74.96C75.6 74.96 77.328 75.536 78.64 76.688C79.952 77.84 80.608 79.36 80.608 81.248C80.608 82.784 80.176 84.336 79.312 85.904C78.448 87.44 77.28 88.8 75.808 89.984C74.368 91.168 72.768 92 71.008 92.48L70.288 91.232C71.664 90.592 72.768 89.616 73.6 88.304C74.464 86.96 74.896 85.52 74.896 83.984C74.896 82.16 74.4 80.704 73.408 79.616C72.416 78.496 71.12 77.936 69.52 77.936C67.824 77.936 66.224 78.624 64.72 80C63.248 81.344 62.064 83.168 61.168 85.472C60.304 87.744 59.872 90.192 59.872 92.816C59.872 95.504 60.288 97.888 61.12 99.968C61.952 102.016 63.104 103.616 64.576 104.768C66.08 105.92 67.792 106.496 69.712 106.496C71.088 106.496 72.464 106.16 73.84 105.488C75.248 104.784 76.608 103.776 77.92 102.464L79.216 103.664C77.712 105.616 75.84 107.248 73.6 108.56C71.392 109.84 69.072 110.48 66.64 110.48C64.016 110.48 61.712 109.872 59.728 108.656C57.776 107.44 56.272 105.76 55.216 103.616C54.16 101.44 53.632 98.96 53.632 96.176C53.632 92.272 54.512 88.704 56.272 85.472C58.064 82.208 60.464 79.648 63.472 77.792C66.512 75.904 69.84 74.96 73.456 74.96ZM95.6714 86C97.3674 86 98.9354 86.336 100.375 87.008C101.847 87.68 102.935 88.72 103.639 90.128L98.9834 92.048C98.5354 91.216 97.9114 90.528 97.1114 89.984C96.3114 89.44 95.4634 89.168 94.5674 89.168C92.4234 89.168 90.7274 90.064 89.4794 91.856C88.2314 93.648 87.6074 95.888 87.6074 98.576C87.6074 101.04 87.9754 103.072 88.7114 104.672C89.4474 106.24 90.6154 107.024 92.2154 107.024C94.4554 107.024 95.9914 105.984 96.8234 103.904C97.6554 101.792 98.0714 99.504 98.0714 97.04V94.928L103.687 92.912V105.392C103.687 105.84 103.783 106.24 103.975 106.592C104.199 106.912 104.519 107.072 104.935 107.072C105.735 107.072 106.551 106.512 107.383 105.392L108.295 106.304C107.815 107.424 107.047 108.384 105.991 109.184C104.967 109.952 103.863 110.336 102.679 110.336C101.143 110.336 100.023 109.824 99.3194 108.8C98.6154 107.744 98.2634 106.4 98.2634 104.768H98.0714C97.3034 106.496 96.2794 107.904 94.9994 108.992C93.7194 110.048 92.2314 110.576 90.5354 110.576C87.9754 110.576 85.9914 109.648 84.5834 107.792C83.2074 105.904 82.5194 103.456 82.5194 100.448C82.5194 97.888 83.0634 95.504 84.1514 93.296C85.2714 91.088 86.8234 89.328 88.8074 88.016C90.8234 86.672 93.1114 86 95.6714 86ZM118.611 89.168V105.584C118.611 106.032 118.739 106.416 118.995 106.736C119.251 107.024 119.587 107.168 120.003 107.168C120.771 107.168 121.635 106.608 122.595 105.488L123.459 106.4C122.883 107.552 122.163 108.416 121.299 108.992C120.435 109.568 119.603 109.952 118.803 110.144C118.003 110.336 117.603 110.4 117.603 110.336C114.403 110.336 112.803 108.656 112.803 105.296V89.168H109.395L110.883 86H112.803V75.104L118.611 73.136V86H124.899L123.459 89.168H118.611ZM140.299 85.712C141.771 85.712 143.131 86.096 144.379 86.864C145.659 87.632 146.651 88.816 147.355 90.416L142.363 93.104C142.043 91.76 141.467 90.72 140.635 89.984C139.803 89.216 138.907 88.832 137.947 88.832C136.667 88.832 135.531 89.232 134.539 90.032C133.547 90.8 132.779 91.808 132.235 93.056C131.723 94.304 131.467 95.616 131.467 96.992C131.467 99.136 131.803 100.992 132.475 102.56C133.147 104.128 134.059 105.328 135.211 106.16C136.395 106.96 137.723 107.36 139.195 107.36C142.139 107.36 144.971 105.68 147.691 102.32L148.795 103.28C147.195 105.616 145.483 107.424 143.659 108.704C141.867 109.952 139.723 110.576 137.227 110.576C135.211 110.576 133.403 110.112 131.803 109.184C130.203 108.224 128.939 106.896 128.011 105.2C127.115 103.472 126.667 101.488 126.667 99.248C126.667 96.784 127.211 94.528 128.299 92.48C129.387 90.4 130.955 88.752 133.003 87.536C135.083 86.32 137.515 85.712 140.299 85.712ZM159.429 98.096H159.621C160.325 94.992 161.477 92.128 163.077 89.504C164.677 86.88 166.645 85.568 168.981 85.568C170.069 85.568 170.869 85.904 171.381 86.576C171.925 87.248 172.261 88.048 172.389 88.976C172.517 89.872 172.581 90.976 172.581 92.288V105.584C172.581 105.968 172.693 106.336 172.917 106.688C173.173 107.008 173.525 107.168 173.973 107.168C174.741 107.168 175.541 106.608 176.373 105.488L177.189 106.4C176.645 107.488 175.861 108.416 174.837 109.184C173.813 109.952 172.693 110.336 171.477 110.336C168.437 110.336 166.917 108.656 166.917 105.296V92.72C166.917 92.304 166.837 91.936 166.677 91.616C166.549 91.264 166.309 91.088 165.957 91.088C164.613 91.088 163.445 92.208 162.453 94.448C161.493 96.688 160.741 99.28 160.197 102.224C159.685 105.168 159.429 107.552 159.429 109.376L153.669 110.624V67.664L159.429 65.648V98.096ZM193.894 85.568C195.75 85.568 197.302 86.048 198.55 87.008C199.798 87.936 200.422 89.296 200.422 91.088C200.422 92.528 199.638 94.144 198.07 95.936C196.534 97.696 194.694 99.344 192.55 100.88C190.438 102.384 188.63 103.472 187.126 104.144C188.47 106.288 190.438 107.36 193.03 107.36C194.47 107.36 195.91 106.96 197.35 106.16C198.822 105.328 200.07 104.24 201.094 102.896L202.054 104.048C200.39 106.128 198.63 107.744 196.774 108.896C194.95 110.016 192.774 110.576 190.246 110.576C188.198 110.576 186.358 110.112 184.726 109.184C183.126 108.256 181.862 106.992 180.934 105.392C180.038 103.76 179.59 101.936 179.59 99.92C179.59 97.488 180.246 95.168 181.558 92.96C182.902 90.72 184.678 88.928 186.886 87.584C189.094 86.24 191.43 85.568 193.894 85.568ZM191.158 88.688C189.942 88.688 188.854 89.136 187.894 90.032C186.934 90.896 186.182 92.016 185.638 93.392C185.094 94.768 184.822 96.192 184.822 97.664C184.822 99.584 185.238 101.232 186.07 102.608C187.254 101.936 188.502 101.008 189.814 99.824C191.158 98.608 192.278 97.312 193.174 95.936C194.07 94.56 194.518 93.312 194.518 92.192C194.518 91.072 194.214 90.208 193.606 89.6C193.03 88.992 192.214 88.688 191.158 88.688ZM212.722 98.144C213.714 95.872 214.882 93.984 216.226 92.48L216.082 92.288C214.994 92.928 213.682 93.248 212.146 93.248C211.154 93.248 210.242 93.088 209.41 92.768L206.29 99.44L204.322 98.576L207.538 91.952C207.442 91.856 207.138 91.584 206.626 91.136C206.114 90.688 205.794 90.24 205.666 89.792L210.274 84.608C210.626 85.92 211.298 87.072 212.29 88.064C213.314 89.024 214.45 89.504 215.698 89.504C217.65 89.504 219.698 88.8 221.842 87.392L222.706 88.304C220.85 90.032 219.266 92.08 217.954 94.448C216.642 96.816 215.986 99.2 215.986 101.6C215.986 103.072 216.354 104.304 217.09 105.296C217.858 106.288 218.962 106.784 220.402 106.784C221.362 106.784 222.386 106.432 223.474 105.728L224.194 106.592C223.266 107.776 222.146 108.72 220.834 109.424C219.554 110.128 218.21 110.48 216.802 110.48C215.042 110.48 213.682 109.904 212.722 108.752C211.762 107.568 211.282 106.08 211.282 104.288C211.282 102.432 211.762 100.384 212.722 98.144Z" fill="#5B3E90"/>
</svg>
